<svg width="100" height="100" viewBox="0 0 100 100" fill="none" xmlns="http://www.w3.org/2000/svg">
<rect width="100" height="100" fill="#E3DACB"/>
<path d="M86.682 62.096C85.8459 62.9315 84.9891 63.8316 84.1899 64.6696C82.8903 66.0331 81.275 67.7285 80.8979 67.8544C80.452 67.9822 77.673 68.0505 75.1477 65.3297L75.05 65.2251L74.9078 65.2045C74.4261 65.14 70.7214 64.6909 68.9859 65.9066C68.9709 65.6993 68.9565 65.497 68.9396 65.2853L68.9039 64.8587C68.726 62.599 61.9586 59.3934 59.0806 58.1289C60.0796 58.0475 61.0961 58.0506 61.532 58.0813C62.7383 58.1684 66.1054 57.1518 66.6579 57.2827C66.6579 57.2827 62.3857 57.2214 62.0337 56.9163C61.6824 56.6107 71.1937 54.8551 72.3944 54.8532C72.3944 54.8532 62.9388 54.4643 59.018 56.2913C55.0966 58.1182 64.1457 47.0092 65.553 45.853C65.553 45.853 62.0594 48.1146 58.7292 52.1362C58.7292 52.1362 56.911 53.2956 60.2518 48.895C60.2518 48.895 60.8769 47.2177 57.6513 50.6387C59.1 48.0545 60.746 45.4884 60.9295 45.196C61.1995 44.7625 63.034 42.8147 65.0188 38.0621C65.2048 38.3139 65.4021 38.5983 65.6263 38.9559L65.7121 39.0931L65.8718 39.1313C66.0034 39.1638 69.15 39.9148 73.5938 40.0194C74.7506 40.5399 77.5183 42.0787 77.5289 43.466C77.534 44.0892 76.939 44.6767 75.7821 45.2053C75.7427 45.2204 71.7831 46.7567 68.4485 47.2328L68.3414 47.2641C68.2663 47.2979 66.4706 48.1102 64.9605 50.1239C63.5237 52.0417 62.065 53.6977 62.0506 53.7133C61.9028 53.8799 61.9204 54.1336 62.0857 54.2801C62.1627 54.3472 62.2579 54.3804 62.3506 54.3804C62.4627 54.3804 62.573 54.334 62.6519 54.2451C62.6669 54.2282 64.1444 52.549 65.6031 50.6061C66.8526 48.9389 68.3433 48.1553 68.622 48.0188C71.2732 47.6317 74.1969 46.6396 75.459 46.1812C76.0151 46.6565 77.9348 48.3626 79.7111 50.7051L79.795 50.8147L79.9278 50.8498C79.9904 50.8667 81.5337 51.26 84.5413 50.3587C85.4068 50.0988 86.149 50.1896 86.7541 50.6224C87.7311 51.327 88.3556 52.9511 88.4207 54.9691C88.4351 55.4269 88.4608 55.8585 88.4852 56.2681C88.623 58.5548 88.7126 60.0649 86.682 62.096ZM67.6788 71.826C67.1852 72.1967 66.6209 72.0376 65.6651 71.727C65.0513 71.5278 64.3561 71.3124 63.5732 71.2729C63.3553 70.1211 63.0477 68.9831 62.5705 67.9108C62.0475 66.7402 61.3335 65.6066 60.27 64.8581L60.233 64.9214C60.7548 65.2715 61.1406 65.8001 61.4813 66.3225C61.8183 66.8561 62.0807 67.4329 62.2999 68.0217C62.6914 69.0751 62.9162 70.1806 63.0578 71.2942C61.9811 71.4721 61.3078 72.6189 60.7116 73.6517C60.2168 74.5091 59.6806 75.3759 59.1514 75.3603C58.6221 75.329 57.7885 74.588 56.9098 73.8026C56.8966 73.792 56.8828 73.7795 56.8691 73.7688C56.844 73.7369 56.8152 73.7168 56.7814 73.6911C55.3189 72.3878 53.517 70.8326 51.323 70.6773C51.1044 70.5457 50.0628 69.7309 50.4937 66.4358L50.5219 66.2003L50.3315 66.06C50.2495 66.0005 48.3473 64.5763 49.4553 62.6566C49.6801 62.4223 51.4977 60.5027 52.1228 59.2394C52.2261 59.2412 52.3288 59.2613 52.4328 59.3252C52.4328 59.3252 55.9703 63.799 56.5897 64.151C57.2073 64.5024 54.8955 60.9837 54.4934 60.1287C54.0913 59.2751 58.2639 60.7952 60.4754 63.127C60.4754 63.127 59.8723 61.2348 57.2586 59.6765C56.058 58.9619 56.6123 58.551 57.672 58.3218C57.7115 58.3694 57.7403 58.4258 57.8017 58.4514C61.7168 60.0918 67.9775 63.2979 68.1053 64.922L68.1391 65.3498C68.3145 67.5112 68.6082 71.1282 67.6788 71.826ZM54.3218 77.0056C52.8725 80.3483 51.4464 80.2287 50.6904 80.1667L50.5639 80.156C50.0471 80.1185 48.6774 78.5351 48.279 77.8994C48.0266 77.4961 47.1385 74.9745 46.2617 71.784C45.8107 70.1405 44.781 68.5284 43.8177 67.2788C44.7209 67.954 45.594 68.7269 46.2222 69.5486C46.888 70.4192 47.5851 70.8595 48.2978 70.8595C48.3523 70.8595 48.4093 70.8564 48.4632 70.8514C49.0845 70.7919 49.5718 70.4042 49.9087 70.0265C50.3121 71.1257 50.9647 71.4082 51.0837 71.4508L51.1939 71.4727C52.984 71.5698 54.5673 72.8124 55.887 73.9699C55.5594 74.3907 55.0834 75.2538 54.3218 77.0056ZM50.7555 83.2914C50.3096 82.4634 50.0158 81.4538 49.8355 80.6847C50.0684 80.8293 50.2977 80.9408 50.5062 80.9559L50.6227 80.9653C50.753 80.9759 50.9096 80.9878 51.0781 80.9897C51.1225 81.9004 51.333 82.6952 51.5002 83.173L50.7555 83.2914ZM38.1389 64.808C37.6892 64.6809 37.3641 63.9249 37.2138 62.6165C37.2113 62.6015 36.9063 61.2611 39.2475 59.6039C39.2637 59.5932 39.2769 59.5838 39.2888 59.5751C39.6233 59.3408 40.0084 59.1009 40.4569 58.8586C40.6511 58.7521 40.7231 58.5084 40.6166 58.3149C40.5114 58.1189 40.2671 58.0493 40.0723 58.1533C39.6208 58.3988 39.2349 58.6425 38.8861 58.8849C38.8817 58.8867 38.8761 58.8849 38.8717 58.8874C38.3042 59.302 36.6131 60.3273 35.6204 60.13C35.3655 60.078 35.1858 59.9502 35.053 59.7291C34.3997 58.6243 36.3332 55.209 37.7042 53.315C37.8339 53.1358 37.7944 52.8859 37.6146 52.7557C37.4355 52.6254 37.1844 52.6642 37.0547 52.8446C36.8699 53.0995 36.0244 54.2939 35.2885 55.6875C32.3441 52.7694 28.3 52.2991 26.0815 52.2934C27.1162 51.6264 27.8246 51.0909 27.9023 51.0295C30.4276 49.4581 32.6949 48.9501 34.6578 49.5245C37.2075 50.271 38.3631 52.6461 38.3731 52.6699C38.4696 52.8697 38.7095 52.9555 38.9074 52.8603C39.1065 52.7663 39.193 52.5277 39.0984 52.3279C39.047 52.217 37.7906 49.6115 34.8939 48.7572C32.7043 48.1109 30.2109 48.6476 27.4469 50.3713C27.3812 50.4226 20.8142 55.4232 17.6537 54.2902C16.9003 54.019 16.4249 53.4033 16.1963 52.4093C16.1474 52.1939 15.9364 52.0604 15.7159 52.1074C15.5011 52.1575 15.3658 52.373 15.4152 52.5878C15.4428 52.7056 15.4892 52.8001 15.523 52.9104C14.6605 52.5064 13.324 51.8826 11.9041 51.2299C11.3135 50.9581 11.3272 50.6412 11.4043 50.3957C11.7237 49.3917 13.9353 48.0407 15.7328 48.3714C15.9583 48.414 16.1587 48.2681 16.2007 48.0507C16.2407 47.8334 16.0967 47.6236 15.8787 47.5835C15.2236 47.462 14.5277 47.5328 13.8588 47.71C14.0273 46.9979 14.6273 45.7246 16.8051 44.8202C17.251 44.7863 20.0381 44.5934 21.8275 44.822C22.0524 44.859 22.2497 44.6955 22.2766 44.4763C22.3042 44.2571 22.1501 44.0554 21.929 44.0272C20.5993 43.8556 18.8149 43.9051 17.7038 43.9615C17.5917 43.6571 17.4502 43.0965 17.7395 42.6581C18.0477 42.1921 18.9521 41.6879 21.4937 41.9322C21.7956 41.961 22.0856 41.9798 22.3793 42.0023C22.3831 42.003 22.3856 42.0073 22.39 42.008C22.3956 42.008 22.3988 42.0036 22.4044 42.0036C26.0703 42.2785 29.1048 42.0574 30.9694 41.9172C31.6934 41.862 32.3723 41.8113 32.5176 41.8426C33.0675 42.0487 39.6132 46.3766 41.469 53.0394C41.5185 53.2166 41.6788 53.3325 41.8561 53.3325C41.8905 53.3325 41.9275 53.3275 41.9626 53.3175C42.1768 53.258 42.3014 53.0369 42.2425 52.8233C40.2577 45.7045 33.3199 41.2595 32.7675 41.0798C32.5214 41.0021 32.0974 41.0284 30.9092 41.118C29.1374 41.2514 26.3039 41.4631 22.8791 41.237C23.2956 37.3268 22.8416 36.9742 22.6875 36.8583C22.5503 36.755 22.348 36.6942 22.0417 36.6003C20.868 36.2427 18.684 35.5769 19.0655 32.4753C19.15 31.7876 19.4751 31.2935 20.0569 30.9634C22.281 29.7064 27.3129 31.2659 27.7839 31.4745C28.4208 31.7582 32.0523 32.0714 35.1695 31.0899C35.5378 30.9772 36.1171 31.1776 36.8198 31.6542C40.3924 34.0731 46.5422 43.203 47.751 49.6197C46.2253 47.0768 44.3971 44.6028 42.7304 44.3448C42.7304 44.3448 50.1975 55.6762 50.2845 56.5205C50.371 57.3642 49.8693 57.2827 49.8693 57.2827C49.8693 57.2827 43.0824 49.9742 42.7304 50.0255C42.3841 50.0744 46.3136 54.7123 49.3482 58.7922C49.4258 58.898 49.5486 58.9525 49.6789 58.9356C50.0365 58.8867 50.3547 59.2137 50.8802 59.7279C50.2319 60.6273 49.2912 61.6739 48.8196 62.1768C47.6765 64.1353 48.787 65.8145 49.6695 66.5598C49.5536 67.5657 49.5699 68.3661 49.6601 69.0056C49.4653 69.3463 48.9824 69.9977 48.3849 70.0528C47.9308 70.1042 47.3966 69.7653 46.8585 69.0614C45.557 67.3603 43.3574 65.8978 41.8116 65.0028C41.7791 64.9702 41.7571 64.9496 41.7477 64.9408L41.7321 64.9558C41.2724 64.6915 40.874 64.4786 40.5809 64.3276C40.8177 64.0808 40.9855 63.8767 41.0275 63.8222C43.7269 61.0219 45.17 60.8309 45.7838 60.9618C46.4514 61.1046 46.6763 61.7021 46.6894 61.7371C46.7621 61.9457 46.9894 62.0572 47.1974 61.9858C47.4066 61.9144 47.5181 61.687 47.4479 61.4778C47.4335 61.434 47.0809 60.4306 45.9704 60.182C44.5725 59.8663 42.7217 60.9091 40.4224 63.2973C39.9721 63.8735 38.814 65.0015 38.1389 64.808ZM48.145 28.884C48.1713 28.8871 50.7455 29.194 52.4698 31.2803L52.5412 31.3674L52.647 31.4037C52.7416 31.4363 54.9638 32.2048 56.5634 32.3043C57.134 32.3407 57.9388 33.4731 58.6491 34.4727C59.6061 35.8186 60.5105 37.092 61.5702 37.092C62.013 37.092 62.3807 37.0062 62.7039 36.931C63.1774 36.8214 63.5532 36.7443 64.0167 37.0293C63.949 37.2335 63.8964 37.3725 63.8845 37.4133C63.7749 37.7446 62.8561 39.6893 58.7292 45.8204C55.2306 51.0182 54.0832 54.9171 53.8132 55.9869C53.775 55.985 53.7368 55.9787 53.7105 55.948C53.1863 55.3029 54.3926 47.167 54.0913 47.2133C53.7894 47.2597 53.1863 46.2551 52.684 53.3425C52.181 60.4306 52.0808 44.8471 50.6728 43.3389C49.2661 41.8307 51.1495 50.5278 51.0862 52.0868C51.0242 53.6444 51.5516 55.2027 51.0862 55.4038C50.8845 55.4921 49.9438 53.4972 48.6536 51.1767C48.7056 51.1028 48.7457 51.0164 48.7375 50.9193C48.4594 47.2033 46.1157 42.2084 43.4144 38.0728C43.3612 37.5648 42.6102 29.5861 48.145 28.884ZM89.2863 56.2211C89.2631 55.8171 89.2368 55.3931 89.2224 54.9428C89.1485 52.6448 88.4182 50.8329 87.2207 49.9717C86.4171 49.3929 85.4075 49.2627 84.3114 49.5909C82.0128 50.2804 80.6537 50.1589 80.2566 50.0982C78.6952 48.0614 77.0761 46.5375 76.2863 45.8379C77.6367 45.1772 78.3382 44.3805 78.33 43.4598C78.3131 41.2727 74.3009 39.4538 73.8424 39.2528L73.6915 39.2196C69.8452 39.1356 66.9084 38.5394 66.2163 38.3872C65.9038 37.8999 65.6251 37.5304 65.3607 37.2153C65.3902 37.1408 65.4196 37.0719 65.4484 36.9961C65.9539 35.6928 66.1274 34.1626 66.1011 32.5887C66.0992 32.476 66.1443 32.3714 66.2326 32.3006C66.6635 31.9586 67.7683 31.1494 67.9243 31.0655C68.1122 30.964 68.3139 30.6327 68.084 30.4316C67.8535 30.2293 67.551 30.5901 67.4489 30.8488C67.3531 31.0955 66.19 31.9379 66.0785 32.0181C66.0441 31.2484 65.9664 30.4761 65.858 29.7158C65.8418 29.6005 65.8731 29.4922 65.9564 29.412C66.3153 29.0644 67.3236 28.1042 67.7452 27.8975C68.2631 27.6439 68.2782 27.4785 68.0997 27.0514C67.9205 26.6236 67.6456 27.2055 67.5472 27.4472C67.4508 27.6846 65.8543 29.1251 65.776 29.1959C65.7059 28.7587 65.6269 28.331 65.5418 27.9101C65.6413 27.8186 67.2973 26.301 67.9381 26.0367C68.5982 25.7643 68.6301 25.5607 68.4435 25.0177C68.2562 24.4759 67.8698 25.1718 67.7289 25.4643C67.5923 25.7442 65.6132 27.3244 65.4497 27.4535C65.3432 26.9618 65.2286 26.4933 65.1127 26.043C65.0845 25.9321 65.104 25.825 65.1735 25.7348C65.5568 25.2488 66.8232 23.6611 67.3211 23.3204C67.9111 22.9183 67.9005 22.7122 67.6061 22.2199C67.3117 21.7276 67.0762 22.4886 66.9986 22.8043C66.9228 23.1093 65.0808 25.3778 64.9724 25.5112C64.752 24.702 64.5359 23.993 64.3474 23.4187C64.3142 23.3191 64.3248 23.2208 64.3787 23.1293C64.6887 22.5976 65.8079 20.7161 66.3397 20.2245C66.9616 19.6514 66.914 19.4127 66.4837 18.8866C66.0528 18.3605 65.91 19.2931 65.8725 19.6752C65.8368 20.0466 64.2309 22.6521 64.1394 22.8005C63.9409 22.2268 63.8093 21.8949 63.8093 21.8949C63.8093 21.8949 64.0386 18.0267 64.4006 17.5507C64.762 17.074 65.352 16.5592 64.2096 16.2554C63.0665 15.9498 63.9045 17.4743 63.9045 17.4743L63.0853 20.1606C63.0853 20.1606 61.9811 17.5313 62.1126 16.9024C62.2467 16.2736 62.3807 15.569 61.3322 15.7594C60.285 15.9498 61.5414 17.1505 61.5414 17.1505C62.1327 18.2365 62.0375 20.579 62.0375 20.579C62.0375 20.579 60.094 18.4651 60.1128 18.2365C60.1322 18.0073 59.618 16.102 58.6848 17.074C57.7503 18.0455 59.6368 18.6173 59.6368 18.6173C60.0752 20.0084 62.9588 22.2575 62.9588 22.2575C63.1292 22.6821 63.2732 23.0943 63.4148 23.5058C61.8928 22.9828 60.1316 21.856 60.1053 21.7408C60.0796 21.6237 59.9111 20.5614 59.199 21.2216C58.485 21.883 59.8854 22.064 59.8854 22.064C60.342 22.7742 63.3991 23.8008 63.5394 23.8477C63.711 24.3651 63.8613 24.8724 63.9929 25.3672C61.7869 24.6131 59.0468 22.798 59.0086 22.6295C58.9723 22.4611 58.7274 20.9247 57.6977 21.8805C56.6668 22.8356 58.6904 23.098 58.6904 23.098C59.3462 24.1177 63.8407 25.706 64.0962 25.7962C64.2246 26.3086 64.3317 26.8071 64.4219 27.2925C64.0073 27.0595 61.9567 26.1044 61.9567 26.1044C61.4375 24.8812 60.6777 25.6985 60.6777 25.6985C60.2381 26.7626 61.7168 26.4269 61.7168 26.4269C62.04 26.6499 63.7173 27.3389 64.296 27.5737C64.4156 27.6226 64.4983 27.7316 64.5183 27.86C64.6179 28.4681 64.6962 29.0587 64.7444 29.6168C64.3192 29.5084 61.8345 28.195 61.8345 28.195C61.3617 27.0808 60.6696 27.8261 60.6696 27.8261C60.2694 28.7951 61.6297 28.485 61.6297 28.485C61.9842 28.7293 64.7138 29.9832 64.7676 30.0076C64.7996 30.4918 64.8158 30.9534 64.8177 31.3968C63.4511 31.093 62.7408 30.3834 62.5598 30.0208C62.3757 29.6544 62.308 29.013 61.6203 29.5297C60.9333 30.0458 62.3306 30.3646 62.3306 30.3646C62.6682 31.0054 63.9922 31.5365 64.5678 31.7413C64.7213 31.7958 64.8183 31.9473 64.8133 32.1096C64.7601 33.9272 64.4845 35.3232 64.2465 36.2351C63.6678 35.9414 63.1398 36.0059 62.5223 36.15C62.2279 36.2189 61.9222 36.2896 61.5702 36.2896C60.9251 36.2896 60.0245 35.0238 59.3036 34.0073C58.4092 32.7503 57.5662 31.5634 56.6129 31.5039C55.3089 31.4225 53.4662 30.8319 53.014 30.6815C51.08 28.4161 48.3461 28.0992 48.1387 28.0879C43.1426 28.7118 42.5501 34.1764 42.557 36.8082C40.7018 34.1614 38.7664 32.0037 37.2695 30.9897C36.3313 30.3546 35.5459 30.1329 34.9296 30.3252C31.9113 31.2753 28.4935 30.9127 28.1102 30.7417C28.0582 30.7191 22.4113 28.7105 19.663 30.2657C18.8544 30.7229 18.3847 31.4338 18.2694 32.377C17.8053 36.1475 20.6106 37.003 21.8075 37.3682C21.9647 37.4151 22.1645 37.479 22.1551 37.4458C22.323 37.7615 22.2478 39.5497 22.0781 41.1737C21.9077 41.1593 21.7424 41.1499 21.5689 41.133C19.2007 40.905 17.6938 41.2708 17.0694 42.2165C16.6604 42.8372 16.7418 43.5362 16.8771 44.0109C16.7675 44.0185 16.6948 44.0241 16.6779 44.0254L16.5589 44.0535C13.5125 45.2949 13.0553 47.2772 12.9926 48.0119C11.8433 48.5161 10.9013 49.3353 10.6402 50.1533C10.3978 50.9174 10.736 51.5757 11.5696 51.9584C13.7217 52.9479 15.6921 53.8755 16.0647 54.0515C16.403 54.5094 16.8364 54.8482 17.3819 55.0443C17.7746 55.1864 18.2105 55.2509 18.6709 55.2509C20.5348 55.2509 22.8234 54.2094 24.6573 53.1603C25.3888 53.087 31.2719 52.6254 34.9146 56.4397C34.2688 57.8258 33.8548 59.2763 34.364 60.1375C34.6083 60.5509 34.9872 60.8196 35.4595 60.916C35.6004 60.9448 35.7451 60.958 35.8941 60.958C36.2342 60.958 36.5912 60.8847 36.942 60.7782C36.2023 61.9313 36.4209 62.753 36.429 62.7674C36.6131 64.4284 37.1011 65.3479 37.9209 65.5796C38.0468 65.6153 38.1733 65.6322 38.3011 65.6322C38.8817 65.631 39.4654 65.2909 39.9464 64.9063C40.2183 65.0435 40.7162 65.3015 41.3287 65.6548C41.9594 66.2867 44.7096 69.1597 45.4881 71.9969C46.3531 75.1442 47.2769 77.8098 47.5995 78.3253C47.6082 78.3391 48.1619 79.1345 48.8465 79.8485C48.9517 80.4893 49.3375 82.5073 50.2031 83.939L50.3421 84.1708L52.6414 83.8038L52.419 83.3221C52.4128 83.3102 51.9249 82.2254 51.8716 80.892C52.8011 80.6508 53.9667 79.8416 55.0584 77.3263C55.8701 75.4567 56.2972 74.7647 56.4945 74.5066C57.5092 75.4098 58.3271 76.1156 59.105 76.1614C59.1345 76.1626 59.1614 76.1632 59.189 76.1632C60.1886 76.1632 60.8068 75.091 61.4068 74.0532C61.9717 73.073 62.5561 72.0596 63.3421 72.0596C64.0962 72.0596 64.7695 72.2788 65.4177 72.4905C66.3904 72.8068 67.3099 73.1055 68.1592 72.4679C69.1431 71.7301 69.217 69.6119 69.0586 66.9745C69.802 65.6924 73.213 65.807 74.661 65.9817C76.8293 68.254 79.1881 68.6968 80.4031 68.6968C80.7357 68.6968 80.9837 68.663 81.1171 68.6254C81.657 68.4714 82.7412 67.3528 84.7705 65.2233C85.5647 64.3896 86.4171 63.4952 87.2482 62.6628C89.5356 60.3768 89.426 58.5423 89.2863 56.2211Z" fill="black"/>
</svg>
