<svg width="78" height="40" viewBox="0 0 78 40" fill="none" xmlns="http://www.w3.org/2000/svg">
<path d="M5.99228 29.4679C5.8494 29.5366 5.67669 29.5979 5.47506 29.6522C5.27325 29.7061 5.04753 29.7546 4.79846 29.7979C4.54865 29.8415 4.28828 29.863 4.01697 29.863C3.43711 29.863 2.90154 29.7817 2.41044 29.6195C1.91879 29.457 1.49497 29.2103 1.13915 28.8785C0.783157 28.5465 0.504623 28.141 0.302996 27.661C0.100813 27.1815 0 26.635 0 26.0217C0 25.4088 0.100813 24.8626 0.302996 24.3828C0.504623 23.9033 0.787049 23.4971 1.15009 23.1653C1.5135 22.8339 1.94789 22.5812 2.45418 22.4081C2.96047 22.235 3.51791 22.1484 4.12705 22.1484C4.6111 22.1484 5.05327 22.1969 5.45301 22.2946C5.85292 22.3917 6.20707 22.5092 6.51488 22.6462C6.45614 22.7472 6.40851 22.884 6.372 23.0573C6.33512 23.2306 6.30584 23.3749 6.28379 23.49L6.218 23.5117C6.14443 23.4253 6.04195 23.3279 5.90963 23.2194C5.7775 23.1114 5.6235 23.0068 5.44763 22.9057C5.27139 22.8049 5.07347 22.72 4.85313 22.6515C4.63316 22.583 4.39113 22.5487 4.12705 22.5487C3.69396 22.5487 3.29237 22.6174 2.92192 22.7541C2.55147 22.8915 2.22846 23.1025 1.95382 23.3872C1.67843 23.6722 1.46383 24.033 1.30965 24.4692C1.15565 24.9057 1.07856 25.4234 1.07856 26.0217C1.07856 26.6206 1.15565 27.1383 1.30965 27.5745C1.46383 28.011 1.67843 28.3714 1.95382 28.6566C2.22846 28.9414 2.55147 29.1527 2.92192 29.2894C3.29237 29.4266 3.69396 29.4949 4.12705 29.4949C4.39113 29.4949 4.63501 29.4627 4.85887 29.3976C5.08255 29.3329 5.28807 29.2551 5.47506 29.1651C5.66242 29.0749 5.83087 28.9776 5.98135 28.8729C6.13164 28.7685 6.25803 28.6763 6.36107 28.597L6.40499 28.6402L6.30584 29.2786C6.24006 29.3364 6.13517 29.3996 5.99228 29.4679Z" fill="white"/>
<path d="M13.4313 23.6901C13.4132 23.232 13.393 22.765 13.3707 22.2891C13.466 22.3037 13.5581 22.3161 13.6461 22.327C13.7342 22.3378 13.8218 22.3432 13.91 22.3432C13.9982 22.3432 14.0863 22.3378 14.1741 22.327C14.2621 22.3161 14.3539 22.3037 14.4495 22.2891C14.4274 22.765 14.4072 23.232 14.3889 23.6901C14.3704 24.1485 14.3613 24.6153 14.3613 25.0912V26.9524C14.3613 27.4285 14.3704 27.8975 14.3889 28.3589C14.4072 28.8206 14.4274 29.275 14.4495 29.7219C14.2805 29.7077 14.1007 29.7004 13.91 29.7004C13.7193 29.7004 13.5396 29.7077 13.3707 29.7219C13.393 29.275 13.4132 28.8206 13.4313 28.3589C13.4497 27.8975 13.4588 27.4285 13.4588 26.9524V25.9786C13.0627 25.9715 12.6793 25.966 12.3089 25.9623C11.938 25.9589 11.555 25.9569 11.1588 25.9569C10.7628 25.9569 10.3793 25.9589 10.0091 25.9623C9.63824 25.966 9.255 25.9715 8.85879 25.9786V26.9524C8.85879 27.4285 8.86787 27.8975 8.88659 28.3589C8.90475 28.8206 8.92495 29.275 8.94719 29.7219C8.77818 29.7077 8.59842 29.7004 8.40791 29.7004C8.21685 29.7004 8.03709 29.7077 7.86845 29.7219C7.89068 29.275 7.91051 28.8206 7.92905 28.3589C7.94721 27.8975 7.95647 27.4285 7.95647 26.9524V25.0912C7.95647 24.6153 7.94721 24.1485 7.92905 23.6901C7.91051 23.232 7.89068 22.765 7.86845 22.2891C7.96389 22.3037 8.0558 22.3161 8.14364 22.327C8.23149 22.3378 8.3197 22.3432 8.40791 22.3432C8.49575 22.3432 8.58359 22.3378 8.6718 22.327C8.75983 22.3161 8.85156 22.3037 8.94719 22.2891C8.92495 22.765 8.90475 23.232 8.88659 23.6901C8.86787 24.1485 8.85879 24.6153 8.85879 25.0912V25.47C9.255 25.4775 9.63824 25.4846 10.0091 25.4919C10.3793 25.499 10.7628 25.5025 11.1588 25.5025C11.555 25.5025 11.938 25.499 12.3089 25.4919C12.6793 25.4846 13.0627 25.4775 13.4588 25.47V25.0912C13.4588 24.6153 13.4497 24.1485 13.4313 23.6901Z" fill="white"/>
<path d="M16.4907 23.6739C16.4721 23.2126 16.4521 22.7507 16.4301 22.289C16.7601 22.3035 17.0887 22.3161 17.415 22.3269C17.7416 22.3378 18.0698 22.3433 18.4002 22.3433C18.7301 22.3433 19.0564 22.3378 19.3792 22.3269C19.7021 22.3161 20.0288 22.3035 20.3588 22.289C20.3366 22.3972 20.3257 22.5054 20.3257 22.6136C20.3257 22.7219 20.3366 22.8299 20.3588 22.9383C20.1238 22.9238 19.9094 22.9094 19.715 22.8952C19.5206 22.8806 19.3149 22.8664 19.099 22.8518C18.8824 22.8372 18.6454 22.8245 18.3891 22.8137C18.1319 22.8031 17.8239 22.7975 17.4645 22.7975C17.4571 23.0285 17.4482 23.2484 17.4373 23.4576C17.426 23.667 17.4206 23.9049 17.4206 24.1717C17.4206 24.453 17.4221 24.7272 17.426 24.9938C17.4295 25.2609 17.4315 25.4628 17.4315 25.5998C17.7544 25.5998 18.0442 25.5965 18.301 25.5892C18.5577 25.5819 18.7923 25.5728 19.0053 25.5621C19.2178 25.5513 19.4141 25.5402 19.594 25.5296C19.7738 25.5189 19.9443 25.5065 20.1057 25.4919C20.0834 25.5998 20.0725 25.7118 20.0725 25.8268C20.0725 25.9352 20.0834 26.0436 20.1057 26.1517C19.9148 26.13 19.693 26.1121 19.4398 26.0976C19.1867 26.0834 18.9337 26.0744 18.6804 26.0706C18.4276 26.067 18.1889 26.0633 17.9653 26.0597C17.7416 26.0562 17.5635 26.0542 17.4315 26.0542C17.4315 26.1194 17.4295 26.1894 17.426 26.2652C17.4221 26.341 17.4206 26.4368 17.4206 26.552V26.974V27.6233C17.4206 28.0344 17.4221 28.3735 17.426 28.64C17.4295 28.9072 17.4352 29.109 17.4427 29.2461H18.2128C18.4916 29.2461 18.7649 29.241 19.0325 29.2298C19.3007 29.2191 19.5536 29.2047 19.7919 29.1867C20.0304 29.1686 20.2376 29.1417 20.4139 29.1056C20.3989 29.1561 20.39 29.2122 20.3863 29.273C20.3825 29.3344 20.3809 29.3905 20.3809 29.4408C20.3809 29.5564 20.3918 29.6502 20.4139 29.722C20.0834 29.7078 19.7552 29.7005 19.4289 29.7005H18.433H17.4315C17.1015 29.7005 16.7677 29.7078 16.4301 29.722C16.4521 29.2606 16.4721 28.8008 16.4907 28.3427C16.5088 27.8846 16.5181 27.4178 16.5181 26.9415V25.0807C16.5181 24.6046 16.5088 24.1358 16.4907 23.6739Z" fill="white"/>
<path d="M24.26 25.1345C24.7772 26.1011 25.3181 27.0931 25.8832 28.1099C25.9564 27.9733 26.0627 27.7765 26.2023 27.5203C26.3416 27.2643 26.5031 26.9704 26.6863 26.6386C26.8698 26.307 27.0662 25.9479 27.2751 25.5622C27.4843 25.1763 27.6969 24.7849 27.9133 24.3879C28.1298 23.9914 28.3446 23.602 28.5571 23.2194C28.7699 22.8375 28.968 22.4804 29.1515 22.1484H29.2945C29.3753 22.8408 29.4504 23.5102 29.52 24.1554C29.5899 24.8011 29.6613 25.4357 29.7348 26.0598C29.808 26.6838 29.8814 27.3006 29.9548 27.9099C30.0282 28.5195 30.109 29.1237 30.197 29.7221C30.109 29.7079 30.0224 29.7006 29.9387 29.7006H29.6796H29.4211C29.3368 29.7006 29.2504 29.7079 29.1624 29.7221C29.0818 28.763 29.001 27.8326 28.9205 26.9307C28.8396 26.0292 28.7406 25.1094 28.6231 24.1716H28.6012C28.0949 25.0806 27.5979 25.984 27.1102 26.8822C26.6222 27.7802 26.1584 28.7198 25.7179 29.7006H25.6189C25.1788 28.7916 24.7183 27.8813 24.2379 26.9684C23.7574 26.0563 23.275 25.1238 22.7908 24.1716H22.7687C22.7174 24.6189 22.6605 25.1039 22.5982 25.627C22.5358 26.1502 22.4789 26.6656 22.4275 27.174C22.3762 27.6829 22.3323 28.1626 22.2956 28.6134C22.2589 29.0641 22.2405 29.4338 22.2405 29.7221C22.123 29.7079 21.9948 29.7006 21.8554 29.7006C21.7157 29.7006 21.5875 29.7079 21.4702 29.7221C21.5656 29.1381 21.6646 28.5212 21.7674 27.8722C21.8701 27.2228 21.969 26.5703 22.0645 25.9137C22.1596 25.2575 22.248 24.6098 22.3286 23.9715C22.4094 23.3331 22.4789 22.7254 22.5378 22.1484H22.725C23.2313 23.1726 23.7427 24.1683 24.26 25.1345Z" fill="white"/>
<path d="M32.7059 27.1146C32.7059 27.4827 32.713 27.8469 32.7282 28.2075C32.7424 28.5684 32.7573 28.9326 32.7719 29.3003C32.9114 29.3147 33.0764 29.3273 33.2674 29.3382C33.4581 29.349 33.6525 29.3544 33.8505 29.3544C34.0851 29.3544 34.3108 29.3147 34.5272 29.2355C34.7437 29.156 34.9325 29.039 35.0939 28.8838C35.2552 28.7286 35.3838 28.5376 35.479 28.3102C35.5745 28.083 35.6221 27.825 35.6221 27.5364C35.6221 27.2265 35.5654 26.9725 35.4516 26.7739C35.3378 26.5755 35.1744 26.4206 34.962 26.3085C34.7489 26.1968 34.4941 26.119 34.1972 26.0759C33.8998 26.0329 33.5678 26.011 33.2009 26.011H32.7059V27.1146ZM33.3002 25.6107C33.5569 25.6107 33.8121 25.5855 34.0651 25.5351C34.318 25.4848 34.5439 25.3999 34.7418 25.2807C34.9401 25.1616 35.0997 25.0032 35.2207 24.8044C35.3415 24.6062 35.4019 24.3555 35.4019 24.0527C35.4019 23.7569 35.3471 23.5206 35.237 23.3441C35.1269 23.1673 34.9876 23.0301 34.8187 22.9328C34.6499 22.8355 34.4592 22.7705 34.2465 22.7379C34.0339 22.7058 33.8212 22.6894 33.6082 22.6894C33.4174 22.6894 33.2561 22.6947 33.1242 22.7058C32.9921 22.7164 32.8744 22.7293 32.7719 22.7435C32.7573 23.0897 32.7424 23.4324 32.7282 23.7713C32.713 24.1106 32.7059 24.4531 32.7059 24.7993V25.6107H33.3002ZM31.8036 25.0807C31.8036 24.6046 31.7943 24.1357 31.7762 23.6739C31.7577 23.2125 31.7376 22.7506 31.7156 22.2891C31.9063 22.3037 32.1007 22.3161 32.2986 22.3272C32.4969 22.3378 32.6911 22.3432 32.8822 22.3432C33.0729 22.3432 33.2674 22.3343 33.4654 22.3161C33.6635 22.298 33.8575 22.2891 34.0484 22.2891C34.3638 22.2891 34.6609 22.3128 34.9401 22.3593C35.2187 22.4064 35.4642 22.4892 35.6773 22.6083C35.8901 22.7273 36.0585 22.888 36.1836 23.0897C36.308 23.2918 36.3704 23.5441 36.3704 23.8469C36.3704 24.3808 36.1999 24.7993 35.8589 25.1022C35.5176 25.4052 35.0719 25.618 34.5219 25.7404V25.7621C35.1744 25.7911 35.6899 25.9461 36.0678 26.2274C36.4457 26.5088 36.6347 26.9595 36.6347 27.5799C36.6347 27.9839 36.5502 28.3228 36.3814 28.5972C36.2127 28.8714 35.9927 29.0928 35.7211 29.2624C35.4498 29.4319 35.1508 29.5509 34.8243 29.6195C34.4978 29.6882 34.1731 29.7221 33.8505 29.7221C33.6742 29.7221 33.4965 29.7185 33.3167 29.7114C33.1368 29.7043 32.9591 29.7006 32.7828 29.7006H32.2493C32.0694 29.7006 31.8916 29.7077 31.7156 29.7221C31.7376 29.2606 31.7577 28.8007 31.7762 28.3427C31.7943 27.8848 31.8036 27.4178 31.8036 26.9415V25.0807Z" fill="white"/>
<path d="M39.32 26.3573C39.5106 26.3573 39.7091 26.3611 39.9143 26.3681C40.1194 26.3755 40.3179 26.379 40.5086 26.379C40.7137 26.379 40.9193 26.377 41.125 26.3735C41.3303 26.3699 41.5356 26.3644 41.741 26.3573L40.5197 23.6089L39.32 26.3573ZM44.1953 29.7223C44.0925 29.7079 43.9954 29.7008 43.9036 29.7008H43.6119H43.3201C43.2285 29.7008 43.1314 29.7079 43.0286 29.7223C42.9772 29.5564 42.9077 29.3562 42.8197 29.1217C42.7315 28.8874 42.6342 28.642 42.528 28.386C42.4213 28.1302 42.3134 27.8703 42.2033 27.607C42.0933 27.3436 41.9902 27.093 41.8951 26.8549C41.6603 26.8478 41.422 26.8425 41.1796 26.8389C40.9376 26.8352 40.6956 26.8332 40.4535 26.8332C40.2263 26.8332 40.0027 26.8352 39.7821 26.8389C39.5622 26.8425 39.3383 26.8478 39.1111 26.8549C38.8761 27.4177 38.6636 27.9532 38.4729 28.4618C38.2816 28.9703 38.1389 29.3905 38.0435 29.7223C37.9186 29.7079 37.7831 29.7008 37.6363 29.7008C37.4896 29.7008 37.3539 29.7079 37.2292 29.7223C37.8233 28.4601 38.403 27.2049 38.968 25.9572C39.5327 24.7091 40.1014 23.4397 40.6737 22.1484H40.8827C41.0588 22.5667 41.2497 23.0195 41.455 23.5065C41.6603 23.993 41.8692 24.4855 42.0821 24.9831C42.2947 25.4807 42.5074 25.9749 42.7206 26.4655C42.9329 26.956 43.1333 27.4123 43.3201 27.8341C43.5074 28.2562 43.6761 28.6332 43.8264 28.9648C43.9766 29.2966 44.0997 29.5492 44.1953 29.7223Z" fill="white"/>
<path d="M46.3629 25.708C46.4655 25.7295 46.5775 25.7441 46.6985 25.7514C46.8195 25.7585 46.9535 25.7621 47.1003 25.7621C47.3275 25.7621 47.5639 25.737 47.81 25.6863C48.0558 25.636 48.2815 25.5477 48.4866 25.4214C48.692 25.2951 48.8625 25.1257 48.9985 24.9127C49.1341 24.7002 49.2021 24.4315 49.2021 24.1068C49.2021 23.8255 49.1486 23.5928 49.0426 23.4088C48.9362 23.2249 48.7985 23.0788 48.6297 22.9708C48.4611 22.8625 48.2778 22.7887 48.0799 22.749C47.8816 22.7095 47.6872 22.6894 47.4961 22.6894C47.2392 22.6894 47.0267 22.6949 46.8579 22.7055C46.6892 22.7164 46.5462 22.729 46.4287 22.7434C46.414 23.1402 46.3992 23.5332 46.3849 23.9228C46.3699 24.3125 46.3629 24.7019 46.3629 25.0912V25.708ZM45.4606 25.0912C45.4606 24.6153 45.4513 24.1483 45.4329 23.6901C45.4146 23.2322 45.3946 22.765 45.3723 22.2889C45.5853 22.3035 45.7941 22.3163 45.9998 22.3268C46.205 22.3378 46.414 22.3432 46.627 22.3432C46.8397 22.3432 47.0487 22.3341 47.2543 22.3163C47.4594 22.2981 47.6686 22.2889 47.8816 22.2889C48.1896 22.2889 48.4831 22.3179 48.7618 22.3757C49.0407 22.4332 49.2846 22.5291 49.4938 22.6623C49.7027 22.7958 49.8678 22.9708 49.9886 23.187C50.1098 23.4035 50.1704 23.6739 50.1704 23.9984C50.1704 24.3448 50.0917 24.6423 49.9342 24.8912C49.7761 25.1401 49.5835 25.3458 49.3563 25.5079C49.1288 25.6701 48.8845 25.7966 48.6243 25.8866C48.3638 25.9771 48.1273 26.0363 47.9147 26.0653C48.0026 26.1734 48.1236 26.3249 48.2778 26.5197C48.4318 26.7143 48.6041 26.929 48.7948 27.1633C48.9855 27.3978 49.1838 27.643 49.3891 27.899C49.5943 28.1552 49.7926 28.4004 49.9834 28.6346C50.174 28.8694 50.3537 29.0839 50.5224 29.2787C50.6914 29.4734 50.827 29.6214 50.9299 29.7221C50.8196 29.7076 50.7097 29.7005 50.5998 29.7005H50.2694H49.9503C49.8406 29.7005 49.7338 29.7076 49.6312 29.7221C49.5213 29.5707 49.3545 29.3435 49.1308 29.0405C48.9067 28.7375 48.659 28.413 48.3877 28.0666C48.1162 27.7206 47.8391 27.3763 47.5567 27.0334C47.2745 26.691 47.0159 26.4004 46.7811 26.1626H46.3629V26.9525C46.3629 27.4284 46.372 27.8976 46.3903 28.3589C46.4085 28.8208 46.4287 29.275 46.4509 29.7221C46.2821 29.7076 46.1025 29.7005 45.9118 29.7005C45.7207 29.7005 45.541 29.7076 45.3723 29.7221C45.3946 29.275 45.4146 28.8208 45.4329 28.3589C45.4513 27.8976 45.4606 27.4284 45.4606 26.9525V25.0912Z" fill="white"/>
<path d="M53.3839 26.3573C53.5746 26.3573 53.7731 26.3611 53.9782 26.3681C54.1834 26.3755 54.3818 26.379 54.5725 26.379C54.7777 26.379 54.9832 26.377 55.1889 26.3735C55.3942 26.3699 55.5996 26.3644 55.8049 26.3573L54.5837 23.6089L53.3839 26.3573ZM58.2593 29.7223C58.1564 29.7079 58.0593 29.7008 57.9676 29.7008H57.6759H57.384C57.2925 29.7008 57.1954 29.7079 57.0925 29.7223C57.0412 29.5564 56.9717 29.3562 56.8836 29.1217C56.7954 28.8874 56.6981 28.642 56.592 28.386C56.4854 28.1302 56.3774 27.8703 56.2673 27.607C56.1572 27.3436 56.0542 27.093 55.9591 26.8549C55.7243 26.8478 55.486 26.8425 55.2436 26.8389C55.0016 26.8352 54.7595 26.8332 54.5175 26.8332C54.2903 26.8332 54.0666 26.8352 53.8461 26.8389C53.6261 26.8425 53.4023 26.8478 53.175 26.8549C52.9401 27.4177 52.7275 27.9532 52.5368 28.4618C52.3456 28.9703 52.2031 29.3905 52.1074 29.7223C51.9825 29.7079 51.8471 29.7008 51.7003 29.7008C51.5535 29.7008 51.4179 29.7079 51.2931 29.7223C51.8875 28.4601 52.4671 27.2049 53.032 25.9572C53.5966 24.7091 54.1656 23.4397 54.7377 22.1484H54.9467C55.1228 22.5667 55.3136 23.0195 55.519 23.5065C55.7243 23.993 55.9331 24.4855 56.1461 24.9831C56.3588 25.4807 56.5714 25.9749 56.7845 26.4655C56.9969 26.956 57.1974 27.4123 57.384 27.8341C57.5714 28.2562 57.74 28.6332 57.8903 28.9648C58.0406 29.2966 58.1636 29.5492 58.2593 29.7223Z" fill="white"/>
<path d="M60.2069 22.8517C60.0161 22.8517 59.8163 22.8537 59.6071 22.8569C59.398 22.8608 59.1888 22.8679 58.9798 22.8786C58.7709 22.8894 58.5691 22.9021 58.3745 22.9163C58.1799 22.9313 58.0059 22.949 57.8517 22.9706C57.8884 22.8409 57.9069 22.7258 57.9069 22.6246C57.9069 22.5452 57.8884 22.4333 57.8517 22.2888C58.336 22.3038 58.8093 22.3163 59.2713 22.3269C59.7336 22.3377 60.2069 22.3431 60.691 22.3431C61.1752 22.3431 61.6485 22.3377 62.1105 22.3269C62.5729 22.3163 63.0458 22.3038 63.5304 22.2888C63.4936 22.4333 63.4752 22.5488 63.4752 22.6354C63.4752 22.729 63.4936 22.8409 63.5304 22.9706C63.3763 22.949 63.2019 22.9313 63.0075 22.9163C62.8131 22.9021 62.6114 22.8894 62.4022 22.8786C62.1932 22.8679 61.9841 22.8608 61.7751 22.8569C61.5659 22.8537 61.3661 22.8517 61.1752 22.8517C61.1532 23.5947 61.1424 24.3414 61.1424 25.0915V26.9523C61.1424 27.4283 61.1513 27.8974 61.1697 28.3591C61.1878 28.8207 61.2082 29.2753 61.2303 29.7222C61.0614 29.7076 60.8817 29.7005 60.691 29.7005C60.5001 29.7005 60.3203 29.7076 60.1517 29.7222C60.1738 29.2753 60.1938 28.8207 60.2121 28.3591C60.2307 27.8974 60.2401 27.4283 60.2401 26.9523V25.0915C60.2401 24.3414 60.2288 23.5947 60.2069 22.8517Z" fill="white"/>
<path d="M70.3034 23.6901C70.2851 23.232 70.2649 22.765 70.2428 22.2891C70.3381 22.3037 70.4302 22.3161 70.518 22.327C70.6061 22.3378 70.6937 22.3432 70.7821 22.3432C70.8701 22.3432 70.9582 22.3378 71.0462 22.327C71.1342 22.3161 71.2259 22.3037 71.3214 22.2891C71.2993 22.765 71.2791 23.232 71.261 23.6901C71.2423 24.1485 71.2332 24.6153 71.2332 25.0912V26.9524C71.2332 27.4285 71.2423 27.8975 71.261 28.3589C71.2791 28.8206 71.2993 29.275 71.3214 29.7219C71.1524 29.7077 70.9726 29.7004 70.7821 29.7004C70.5912 29.7004 70.4117 29.7077 70.2428 29.7219C70.2649 29.275 70.2851 28.8206 70.3034 28.3589C70.3216 27.8975 70.3307 27.4285 70.3307 26.9524V25.9786C69.9348 25.9715 69.5512 25.966 69.181 25.9623C68.8101 25.9589 68.4269 25.9569 68.0309 25.9569C67.6348 25.9569 67.2512 25.9589 66.881 25.9623C66.5101 25.966 66.1269 25.9715 65.7309 25.9786V26.9524C65.7309 27.4285 65.7398 27.8975 65.7587 28.3589C65.7768 28.8206 65.797 29.275 65.8191 29.7219C65.6503 29.7077 65.4705 29.7004 65.2798 29.7004C65.0889 29.7004 64.909 29.7077 64.7403 29.7219C64.7628 29.275 64.7826 28.8206 64.8011 28.3589C64.8193 27.8975 64.8286 27.4285 64.8286 26.9524V25.0912C64.8286 24.6153 64.8193 24.1485 64.8011 23.6901C64.7826 23.232 64.7628 22.765 64.7403 22.2891C64.8358 22.3037 64.9277 22.3161 65.0157 22.327C65.1034 22.3378 65.1918 22.3432 65.2798 22.3432C65.3678 22.3432 65.4557 22.3378 65.5437 22.327C65.6319 22.3161 65.7235 22.3037 65.8191 22.2891C65.797 22.765 65.7768 23.232 65.7587 23.6901C65.7398 24.1485 65.7309 24.6153 65.7309 25.0912V25.47C66.1269 25.4775 66.5101 25.4846 66.881 25.4919C67.2512 25.499 67.6348 25.5025 68.0309 25.5025C68.4269 25.5025 68.8101 25.499 69.181 25.4919C69.5512 25.4846 69.9348 25.4775 70.3307 25.47V25.0912C70.3307 24.6153 70.3216 24.1485 70.3034 23.6901Z" fill="white"/>
<path d="M73.3627 23.6901C73.3442 23.232 73.3243 22.765 73.3023 22.2891C73.3975 22.3037 73.4894 22.3161 73.5775 22.327C73.6653 22.3378 73.7532 22.3432 73.8416 22.3432C73.9296 22.3432 74.0172 22.3378 74.1056 22.327C74.1935 22.3161 74.2854 22.3037 74.3808 22.2891C74.3588 22.765 74.3386 23.232 74.3202 23.6901C74.3015 24.1485 74.2926 24.6153 74.2926 25.0912V26.9524C74.2926 27.4285 74.3015 27.8975 74.3202 28.3589C74.3386 28.8206 74.3588 29.275 74.3808 29.7219C74.2118 29.7077 74.0321 29.7004 73.8416 29.7004C73.6507 29.7004 73.4707 29.7077 73.3023 29.7219C73.3243 29.275 73.3442 28.8206 73.3627 28.3589C73.381 27.8975 73.3901 27.4285 73.3901 26.9524V25.0912C73.3901 24.6153 73.381 24.1485 73.3627 23.6901Z" fill="white"/>
<path d="M32.4955 32.1759C32.5379 32.1266 32.5846 32.1067 32.6359 32.1162C32.6871 32.1258 32.7232 32.1493 32.7445 32.1872C32.7657 32.2253 32.7638 32.2632 32.7386 32.3011C32.3159 32.8592 31.9534 33.4149 31.6513 33.9681C31.3493 34.5215 31.0896 35.0568 30.8724 35.5737C30.6553 36.091 30.4618 36.5764 30.2918 37.03C30.2398 37.1647 30.1895 37.2957 30.1414 37.4229C29.9444 37.9219 29.7683 38.2493 29.6128 38.4051C29.4574 38.5606 29.3261 38.5773 29.219 38.4549C29.1119 38.3324 29.0304 38.144 28.9744 37.8897C28.9203 37.6258 28.876 37.2658 28.8412 36.8094C28.8065 36.353 28.7804 35.9691 28.763 35.6577C28.7611 35.6028 28.7581 35.5544 28.7544 35.5125C28.7524 35.4804 28.7524 35.4414 28.7544 35.3958C28.7563 35.3503 28.7226 35.3807 28.6531 35.487C28.4309 35.7943 28.182 36.1844 27.9059 36.6571C27.7283 36.957 27.5599 37.2301 27.4007 37.477C27.2413 37.7235 27.1086 37.8915 27.0024 37.9808C26.9504 38.0225 26.8899 38.0458 26.8216 38.0506C26.753 38.0553 26.7043 38.0179 26.6753 37.9381C26.6464 37.8015 26.6776 37.514 26.7695 37.0756C26.861 36.637 26.9787 36.1489 27.1227 35.6108C27.2665 35.0726 27.4016 34.585 27.528 34.1474C27.6544 33.7101 27.737 33.4297 27.7756 33.3061C27.7331 33.289 27.7154 33.2435 27.722 33.1695C27.7287 33.0955 27.7563 33.0215 27.8047 32.9474C27.8529 32.8734 27.9205 32.8242 28.0072 32.7994C28.0652 32.788 28.111 32.7991 28.1447 32.8322C28.1787 32.8654 28.1898 32.9038 28.1781 32.9474C28.1066 33.1695 27.9856 33.5771 27.8147 34.1702C27.6438 34.7634 27.475 35.3816 27.308 36.025C27.1409 36.6684 27.0286 37.1742 26.9707 37.5424C26.9707 37.5499 26.9672 37.5708 26.9606 37.6051C26.9537 37.6391 26.9533 37.653 26.9591 37.6463C26.9648 37.6395 27.0063 37.5783 27.0836 37.4628C27.2882 37.1456 27.4898 36.8192 27.6889 36.4834C27.8529 36.2083 28.0078 35.9563 28.1534 35.7275C28.2991 35.4988 28.4309 35.321 28.5487 35.1936C28.6607 35.0761 28.7639 35.0249 28.8586 35.04C28.9531 35.0553 29.01 35.1595 29.0295 35.353C29.043 35.5088 29.0556 35.6967 29.0671 35.9168C29.0845 36.232 29.1077 36.5645 29.1366 36.9147C29.1655 37.2649 29.207 37.5794 29.2611 37.8583C29.3189 38.1526 29.3917 38.255 29.4798 38.1659C29.5674 38.0766 29.6992 37.7977 29.8749 37.3289C29.8923 37.2833 29.9088 37.2416 29.9242 37.2037C30.1577 36.5887 30.3914 36.0037 30.6249 35.4485C30.8585 34.8933 31.123 34.3482 31.4184 33.8129C31.7136 33.2777 32.0728 32.7322 32.4955 32.1759Z" fill="white"/>
<path d="M31.8312 36.8364C31.9335 36.7719 32.0608 36.6718 32.2135 36.5361C32.3658 36.4004 32.5445 36.211 32.7491 35.968C32.7376 35.9549 32.7144 35.9406 32.6796 35.9253C32.6449 35.9102 32.5936 35.9126 32.5261 35.9324C32.4585 35.9523 32.3658 36.0146 32.2482 36.1188C32.1285 36.2327 32.0315 36.3539 31.9572 36.482C31.8829 36.6101 31.8351 36.7168 31.8138 36.8023C31.8062 36.8364 31.8028 36.8535 31.8038 36.8535C31.8047 36.8535 31.8138 36.8477 31.8312 36.8364ZM32.6651 36.4208C32.5667 36.5272 32.4489 36.6447 32.3119 36.7737C32.2172 36.8591 32.117 36.938 32.0108 37.01C31.9046 37.0823 31.8032 37.1224 31.7067 37.131C31.6103 37.1396 31.5484 37.0858 31.5213 36.9701C31.5002 36.8165 31.5605 36.6257 31.7024 36.398C31.8442 36.1702 32.0078 35.988 32.1931 35.8514C32.3147 35.7621 32.4513 35.7032 32.6029 35.6748C32.7543 35.6464 32.8629 35.6768 32.9287 35.7659C32.9401 35.7546 32.9681 35.7488 33.0126 35.7488C33.0569 35.7488 33.0903 35.7621 33.1125 35.7887C33.1347 35.8153 33.142 35.8439 33.1342 35.8741C33.1131 35.9519 33.0878 36.0318 33.0589 36.1132C33.0222 36.2099 32.9904 36.308 32.9633 36.4065C32.9363 36.5053 32.9287 36.6011 32.9401 36.6941C32.9537 36.844 33.031 36.9103 33.1718 36.8932C33.3012 36.8724 33.472 36.8076 33.6844 36.6983C33.8968 36.5893 34.2828 36.3315 34.8426 35.9253C34.8929 35.8969 34.9383 35.8946 34.9787 35.9182C35.0192 35.9421 35.0404 35.9744 35.0424 36.015C35.0443 36.056 35.0183 36.0953 34.9642 36.1332C34.555 36.4521 34.1775 36.7039 33.8321 36.889C33.4865 37.0741 33.2103 37.159 33.0039 37.1437C32.8784 37.1248 32.7882 37.0723 32.7331 36.9858C32.6781 36.8996 32.6486 36.8005 32.6449 36.6884C32.6468 36.5423 32.6535 36.453 32.6651 36.4208Z" fill="white"/>
<path d="M34.2247 39.6292C34.4563 39.4641 34.7048 39.1859 34.9702 38.7951C35.2358 38.4039 35.4602 38.0016 35.6435 37.588C35.2478 37.8764 34.8931 38.1958 34.5794 38.546C34.2658 38.8962 34.0558 39.203 33.9496 39.4669C33.9033 39.5902 33.8913 39.668 33.9133 39.7005C33.9356 39.7325 33.9741 39.7416 34.0291 39.7274C34.0842 39.7132 34.1494 39.6804 34.2247 39.6292ZM38.1916 35.9367C38.2361 35.9215 38.2746 35.9301 38.3074 35.9624C38.3402 35.9948 38.3543 36.0318 38.3495 36.0733C38.3445 36.1152 38.3113 36.1493 38.2496 36.1759C37.4157 36.5024 36.6888 36.8734 36.0691 37.289C35.9513 37.5851 35.8002 37.9057 35.616 38.2514C35.4316 38.5967 35.2265 38.9175 35.0006 39.2136C34.7749 39.5097 34.5403 39.7334 34.2971 39.8854C34.1001 39.9975 33.9304 40.0273 33.7875 39.975C33.6446 39.9227 33.5905 39.7905 33.6253 39.578C33.6756 39.3577 33.8107 39.1012 34.0306 38.8078C34.2508 38.5147 34.5206 38.2201 34.8399 37.924C35.1594 37.6279 35.49 37.3668 35.8317 37.141C35.9687 36.7936 36.073 36.4918 36.1444 36.2357L36.0866 36.3011C35.8896 36.5288 35.6666 36.7473 35.4176 36.9559C35.1744 37.1399 34.9943 37.2008 34.8775 37.1381C34.761 37.0754 34.7102 36.9607 34.7256 36.7936C34.7508 36.5755 34.814 36.3648 34.9153 36.1617C35.0165 35.9585 35.1136 35.8126 35.2063 35.7233C35.243 35.6911 35.283 35.6778 35.3264 35.6834C35.3699 35.6891 35.4022 35.7062 35.4235 35.7346C35.4446 35.763 35.4485 35.7955 35.435 35.8314C35.4292 35.8467 35.4235 35.8609 35.4176 35.8742C35.404 35.9102 35.3892 35.9407 35.3727 35.9653C35.3562 35.9899 35.3366 36.005 35.3134 36.0108C35.2458 36.1096 35.1735 36.2448 35.0962 36.4164C35.0189 36.5884 34.9852 36.7329 34.9948 36.8506C35.0045 36.9133 35.0769 36.8943 35.212 36.7936C35.3395 36.695 35.4756 36.5698 35.6203 36.4179C35.7652 36.2661 35.9524 36.0611 36.1822 35.8029C36.2207 35.7594 36.2719 35.7304 36.3356 35.716C36.3992 35.7018 36.4485 35.718 36.4833 35.7645C36.518 35.8111 36.5219 35.8902 36.4948 36.0023C36.4099 36.3324 36.3191 36.6285 36.2226 36.8905C36.8095 36.5243 37.4657 36.2063 38.1916 35.9367Z" fill="white"/>
<path d="M38.3669 36.8364C38.4692 36.7719 38.5966 36.6718 38.7493 36.5361C38.9016 36.4004 39.0804 36.211 39.285 35.968C39.2735 35.9549 39.2504 35.9406 39.2155 35.9253C39.1809 35.9102 39.1295 35.9126 39.0619 35.9324C38.9944 35.9523 38.9016 36.0146 38.7839 36.1188C38.6642 36.2327 38.5673 36.3539 38.493 36.482C38.4186 36.6101 38.3708 36.7168 38.3495 36.8023C38.3419 36.8364 38.3386 36.8535 38.3395 36.8535C38.3404 36.8535 38.3495 36.8477 38.3669 36.8364ZM39.2011 36.4208C39.1027 36.5272 38.9846 36.6447 38.8477 36.7737C38.753 36.8591 38.6527 36.938 38.5465 37.01C38.4403 37.0823 38.339 37.1224 38.2424 37.131C38.146 37.1396 38.0841 37.0858 38.0571 36.9701C38.036 36.8165 38.0962 36.6257 38.2381 36.398C38.3799 36.1702 38.5436 35.988 38.7289 35.8514C38.8504 35.7621 38.9872 35.7032 39.1388 35.6748C39.2902 35.6464 39.3988 35.6768 39.4646 35.7659C39.4761 35.7546 39.5041 35.7488 39.5485 35.7488C39.5928 35.7488 39.6262 35.7621 39.6484 35.7887C39.6705 35.8153 39.6777 35.8439 39.6701 35.8741C39.6488 35.9519 39.6238 36.0318 39.5949 36.1132C39.5582 36.2099 39.5263 36.308 39.4992 36.4065C39.4722 36.5053 39.4646 36.6011 39.4761 36.6941C39.4896 36.844 39.5669 36.9103 39.7077 36.8932C39.8371 36.8724 40.0078 36.8076 40.2203 36.6983C40.4325 36.5893 40.8185 36.3315 41.3786 35.9253C41.4286 35.8969 41.4742 35.8946 41.5146 35.9182C41.5552 35.9421 41.5763 35.9744 41.5783 36.015C41.5802 36.056 41.5541 36.0953 41.5001 36.1332C41.0908 36.4521 40.7135 36.7039 40.368 36.889C40.0224 37.0741 39.7463 37.159 39.5398 37.1437C39.4142 37.1248 39.3241 37.0723 39.2691 36.9858C39.214 36.8996 39.1846 36.8005 39.1809 36.6884C39.1825 36.5423 39.1894 36.453 39.2011 36.4208Z" fill="white"/>
<path d="M44.5914 36.1076C44.6396 36.0735 44.685 36.0673 44.7274 36.089C44.7699 36.111 44.7951 36.1414 44.8028 36.1801C44.8104 36.2191 44.796 36.2555 44.7593 36.2898C44.5799 36.4512 44.3607 36.6154 44.102 36.7823C43.8433 36.9493 43.5972 37.0603 43.3637 37.1153C43.1628 37.1532 42.9919 37.1343 42.8511 37.0585C42.7102 36.9827 42.6079 36.863 42.5442 36.6997C42.5017 36.584 42.4708 36.4598 42.4515 36.3268C42.4323 36.1901 42.4148 36.1087 42.3994 36.0819C42.349 36.1105 42.2479 36.2098 42.0953 36.3794C41.9428 36.5494 41.7942 36.725 41.6495 36.9062C41.5047 37.0873 41.4034 37.2168 41.3454 37.2948C41.3068 37.3404 41.264 37.3602 41.2166 37.3546C41.1693 37.3487 41.1346 37.3292 41.1124 37.2961C41.0902 37.2629 41.0848 37.2265 41.0965 37.1866C41.1543 37.0404 41.2093 36.8925 41.2614 36.7424C41.335 36.5374 41.4121 36.3339 41.4931 36.1318C41.5742 35.9295 41.6339 35.8011 41.6726 35.7461C41.6997 35.7043 41.7364 35.6819 41.7827 35.679C41.829 35.6763 41.8652 35.689 41.8913 35.7175C41.9173 35.7461 41.9226 35.7801 41.9072 35.82C41.8163 36.0363 41.7314 36.2566 41.6524 36.4805C41.8068 36.3022 41.9404 36.1573 42.0535 36.0463C42.1663 35.9354 42.2632 35.8618 42.3444 35.8257C42.4389 35.7954 42.5138 35.8049 42.5688 35.8541C42.6239 35.9037 42.6609 35.9614 42.6802 36.0279C42.7034 36.1114 42.7217 36.1968 42.7352 36.2841C42.7488 36.3734 42.7671 36.4598 42.7903 36.5432C42.8811 36.8318 43.0799 36.936 43.3868 36.8562C43.5683 36.8014 43.7532 36.7108 43.9413 36.5844C44.1296 36.4583 44.3462 36.2994 44.5914 36.1076Z" fill="white"/>
<path d="M44.7695 36.8364C44.8718 36.7719 44.9991 36.6718 45.1518 36.5361C45.3042 36.4003 45.4828 36.211 45.6874 35.968C45.6759 35.9548 45.6528 35.9406 45.6179 35.9253C45.5833 35.9102 45.5319 35.9126 45.4645 35.9324C45.3968 35.9523 45.3042 36.0146 45.1865 36.1188C45.0668 36.2327 44.9697 36.3539 44.8956 36.482C44.8212 36.6101 44.7734 36.7168 44.7521 36.8023C44.7445 36.8364 44.7412 36.8535 44.7421 36.8535C44.743 36.8535 44.7521 36.8476 44.7695 36.8364ZM45.6035 36.4207C45.5051 36.5272 45.3872 36.6447 45.2503 36.7737C45.1556 36.8591 45.0551 36.938 44.9491 37.01C44.8429 37.0823 44.7417 37.1224 44.645 37.131C44.5486 37.1395 44.4869 37.0858 44.4597 36.9701C44.4386 36.8165 44.4988 36.6257 44.6407 36.398C44.7825 36.1702 44.9461 35.988 45.1315 35.8514C45.253 35.7621 45.3896 35.7032 45.5412 35.6748C45.6926 35.6464 45.8012 35.6768 45.867 35.7659C45.8785 35.7546 45.9065 35.7488 45.9509 35.7488C45.9952 35.7488 46.0286 35.7621 46.0508 35.7887C46.0729 35.8153 46.0801 35.8439 46.0725 35.8741C46.0512 35.9519 46.0262 36.0317 45.9973 36.1132C45.9606 36.2099 45.9287 36.308 45.9016 36.4065C45.8746 36.5053 45.867 36.6011 45.8785 36.6941C45.892 36.844 45.9693 36.9103 46.1101 36.8932C46.2395 36.8724 46.4103 36.8076 46.6227 36.6982C46.8351 36.5893 47.2211 36.3315 47.781 35.9253C47.8312 35.8969 47.8766 35.8945 47.917 35.9182C47.9576 35.9421 47.9787 35.9743 47.9807 36.015C47.9826 36.056 47.9565 36.0953 47.9025 36.1332C47.4932 36.4521 47.1159 36.7039 46.7704 36.889C46.4248 37.0741 46.1487 37.159 45.9422 37.1437C45.8166 37.1248 45.7265 37.0723 45.6715 36.9858C45.6164 36.8996 45.587 36.8005 45.5833 36.6884C45.5849 36.5423 45.5918 36.453 45.6035 36.4207Z" fill="white"/>
<path d="M47.8028 36.9018C47.8086 36.9038 47.8163 36.9057 47.826 36.9075C47.8473 36.9131 47.896 36.8891 47.9722 36.835C48.0484 36.7809 48.1281 36.7107 48.2111 36.6243C48.2939 36.538 48.3577 36.4691 48.4021 36.4179C48.518 36.2831 48.6166 36.1608 48.6975 36.0506C48.7072 36.0431 48.6985 36.0278 48.6714 36.005C48.5923 35.9292 48.5024 35.9116 48.4021 35.9524C48.3017 35.9934 48.2033 36.0677 48.1069 36.1759C48.0469 36.2404 47.9855 36.3221 47.9229 36.4206C47.8605 36.5194 47.8154 36.6143 47.7884 36.7054C47.7613 36.7965 47.7663 36.8619 47.8028 36.9018ZM50.4668 32.7909C50.4918 32.7756 50.5233 32.7705 50.5609 32.7753C50.5985 32.78 50.6269 32.7977 50.6464 32.8279C50.6654 32.8584 50.6723 32.899 50.6666 32.9504C50.6376 33.1136 50.5276 33.3798 50.3365 33.7488C50.1454 34.1181 49.9473 34.4802 49.7429 34.8349C49.5381 35.1898 49.4001 35.4262 49.3287 35.5439C49.0815 36.2652 48.9223 36.9997 48.851 37.7474C48.8432 37.7986 48.8152 37.8342 48.767 37.8542C48.7187 37.8741 48.6729 37.8741 48.6295 37.8542C48.5862 37.8342 48.5643 37.7986 48.5643 37.7474C48.6166 37.1873 48.6975 36.7092 48.8076 36.3126C48.7109 36.4569 48.5402 36.6484 48.295 36.8876C48.2177 36.9672 48.1193 37.0405 47.9996 37.1068C47.8801 37.1731 47.7604 37.1761 47.6407 37.1154C47.5115 37.0299 47.4646 36.9033 47.5002 36.7353C47.5361 36.5673 47.6145 36.3975 47.7363 36.2257C47.8579 36.054 47.9881 35.9179 48.1271 35.8172C48.2604 35.7242 48.3916 35.6787 48.5209 35.6805C48.6501 35.6825 48.765 35.7261 48.8654 35.8115C48.906 35.7545 48.9611 35.671 49.0306 35.561C49.1115 35.3066 49.2348 34.983 49.3997 34.59C49.5648 34.1972 49.7424 33.8282 49.9325 33.4826C50.1226 33.1373 50.3007 32.9066 50.4668 32.7909Z" fill="white"/>
<path d="M49.7493 13.489C49.5019 13.7321 49.2484 13.9939 49.0119 14.2377C48.6274 14.6344 48.1494 15.1276 48.0379 15.1642C47.9059 15.2014 47.0837 15.2213 46.3364 14.4298L46.3075 14.3993L46.2655 14.3933C46.123 14.3746 45.0268 14.2439 44.5133 14.5976C44.5088 14.5373 44.5046 14.4784 44.4996 14.4168L44.489 14.2928C44.4364 13.6354 42.434 12.7028 41.5825 12.335C41.878 12.3113 42.1788 12.3122 42.3078 12.3211C42.6647 12.3464 43.661 12.0507 43.8245 12.0888C43.8245 12.0888 42.5604 12.071 42.4562 11.9822C42.3523 11.8933 45.1665 11.3826 45.5218 11.382C45.5218 11.382 42.724 11.2689 41.5639 11.8004C40.4037 12.3319 43.0811 9.10011 43.4975 8.76377C43.4975 8.76377 42.4638 9.42171 41.4785 10.5916C41.4785 10.5916 40.9405 10.9289 41.929 9.64873C41.929 9.64873 42.114 9.16079 41.1596 10.156C41.5882 9.40421 42.0752 8.65772 42.1295 8.57263C42.2094 8.44655 42.7522 7.87989 43.3395 6.49733C43.3945 6.57058 43.4529 6.6533 43.5192 6.75733L43.5446 6.79724L43.5919 6.80835C43.6308 6.81783 44.5618 7.03629 45.8767 7.06672C46.219 7.21813 47.0379 7.6658 47.041 8.06939C47.0425 8.25068 46.8665 8.42159 46.5242 8.57537C46.5125 8.57974 45.3409 9.02669 44.3543 9.16516L44.3226 9.17427C44.3003 9.18411 43.769 9.42043 43.3222 10.0062C42.8971 10.5641 42.4655 11.0459 42.4612 11.0504C42.4175 11.0989 42.4227 11.1727 42.4716 11.2153C42.4944 11.2348 42.5226 11.2445 42.55 11.2445C42.5832 11.2445 42.6158 11.231 42.6392 11.2051C42.6436 11.2002 43.0808 10.7117 43.5124 10.1465C43.8821 9.66149 44.3231 9.43355 44.4056 9.39383C45.1901 9.28123 46.0551 8.99261 46.4286 8.85924C46.5931 8.99753 47.1611 9.49386 47.6867 10.1753L47.7115 10.2072L47.7508 10.2174C47.7693 10.2223 48.226 10.3367 49.1159 10.0745C49.372 9.99893 49.5916 10.0253 49.7706 10.1513C50.0597 10.3562 50.2445 10.8287 50.2637 11.4157C50.268 11.5489 50.2756 11.6745 50.2828 11.7936C50.3236 12.4589 50.3501 12.8982 49.7493 13.489ZM44.1265 16.3196C43.9805 16.4275 43.8135 16.3812 43.5307 16.2908C43.3491 16.2329 43.1434 16.1702 42.9118 16.1587C42.8473 15.8236 42.7563 15.4926 42.6151 15.1806C42.4603 14.8401 42.2491 14.5103 41.9344 14.2926L41.9235 14.311C42.0778 14.4128 42.192 14.5666 42.2928 14.7186C42.3925 14.8738 42.4701 15.0416 42.535 15.2129C42.6508 15.5194 42.7174 15.8409 42.7592 16.1649C42.4407 16.2166 42.2415 16.5503 42.065 16.8507C41.9186 17.1002 41.76 17.3523 41.6034 17.3478C41.4468 17.3387 41.2002 17.1231 40.9401 16.8946C40.9363 16.8915 40.9322 16.8879 40.9281 16.8848C40.9207 16.8755 40.9122 16.8697 40.9022 16.8622C40.4694 16.483 39.9363 16.0306 39.2871 15.9854C39.2224 15.9472 38.9142 15.7101 39.0417 14.7515L39.0501 14.683L38.9937 14.6422C38.9695 14.6249 38.4067 14.2106 38.7345 13.6521C38.801 13.584 39.3388 13.0255 39.5238 12.658C39.5543 12.6586 39.5847 12.6644 39.6155 12.683C39.6155 12.683 40.6622 13.9845 40.8455 14.0869C41.0282 14.1891 40.3442 13.1655 40.2252 12.9167C40.1062 12.6684 41.3408 13.1106 41.9952 13.789C41.9952 13.789 41.8167 13.2385 41.0434 12.7852C40.6881 12.5773 40.8521 12.4578 41.1657 12.3911C41.1774 12.4049 41.1859 12.4213 41.204 12.4288C42.3625 12.906 44.2149 13.8387 44.2527 14.3112L44.2627 14.4356C44.3146 15.0644 44.4015 16.1166 44.1265 16.3196ZM40.1744 17.8264C39.7456 18.7988 39.3236 18.764 39.0999 18.746L39.0625 18.7429C38.9096 18.732 38.5043 18.2714 38.3865 18.0864C38.3118 17.9691 38.049 17.2355 37.7895 16.3074C37.6561 15.8293 37.3514 15.3603 37.0664 14.9968C37.3337 15.1932 37.592 15.418 37.7779 15.6571C37.9749 15.9104 38.1811 16.0385 38.392 16.0385C38.4081 16.0385 38.425 16.0375 38.4409 16.0361C38.6248 16.0188 38.769 15.906 38.8687 15.7961C38.988 16.1159 39.1811 16.1981 39.2163 16.2105L39.2489 16.2168C39.7786 16.2451 40.2471 16.6066 40.6375 16.9433C40.5406 17.0657 40.3998 17.3168 40.1744 17.8264ZM39.1192 19.655C38.9873 19.4141 38.9003 19.1204 38.847 18.8967C38.9159 18.9388 38.9837 18.9712 39.0454 18.9756L39.0799 18.9783C39.1185 18.9814 39.1648 18.9849 39.2146 18.9854C39.2278 19.2503 39.2901 19.4816 39.3395 19.6206L39.1192 19.655ZM35.3861 14.278C35.2531 14.241 35.1569 14.0211 35.1124 13.6405C35.1117 13.6361 35.0214 13.2462 35.7142 12.7641C35.719 12.761 35.7229 12.7582 35.7264 12.7557C35.8253 12.6875 35.9393 12.6177 36.072 12.5472C36.1295 12.5163 36.1508 12.4454 36.1193 12.3891C36.0881 12.3321 36.0159 12.3118 35.9582 12.3421C35.8246 12.4135 35.7105 12.4844 35.6072 12.5549C35.6059 12.5554 35.6043 12.5549 35.603 12.5556C35.4351 12.6762 34.9347 12.9745 34.641 12.9171C34.5656 12.902 34.5124 12.8648 34.4731 12.8005C34.2798 12.4791 34.8519 11.4855 35.2575 10.9345C35.2959 10.8824 35.2842 10.8097 35.231 10.7718C35.178 10.7339 35.1037 10.7452 35.0654 10.7977C35.0107 10.8719 34.7605 11.2193 34.5428 11.6247C33.6716 10.7758 32.475 10.639 31.8186 10.6374C32.1247 10.4433 32.3343 10.2875 32.3573 10.2697C33.1045 9.81253 33.7754 9.66477 34.3561 9.83185C35.1106 10.049 35.4525 10.74 35.4555 10.7469C35.484 10.805 35.555 10.83 35.6135 10.8023C35.6725 10.7749 35.698 10.7055 35.6701 10.6474C35.6549 10.6151 35.2831 9.85717 34.426 9.60865C33.7781 9.42061 33.0404 9.57676 32.2226 10.0782C32.2031 10.0931 30.26 11.5478 29.3249 11.2182C29.102 11.1393 28.9613 10.9602 28.8937 10.6711C28.8792 10.6084 28.8168 10.5696 28.7515 10.5833C28.688 10.5978 28.6479 10.6605 28.6626 10.723C28.6707 10.7573 28.6845 10.7848 28.6945 10.8168C28.4393 10.6993 28.0438 10.5178 27.6237 10.328C27.4489 10.2489 27.453 10.1567 27.4758 10.0853C27.5703 9.79322 28.2247 9.40021 28.7565 9.49641C28.8233 9.5088 28.8826 9.46635 28.895 9.40312C28.9068 9.3399 28.8642 9.27886 28.7997 9.2672C28.6059 9.23185 28.4 9.25244 28.2021 9.304C28.2519 9.09684 28.4295 8.72641 29.0738 8.46331C29.2058 8.45347 30.0304 8.39735 30.5599 8.46386C30.6264 8.47461 30.6848 8.42705 30.6928 8.36328C30.7009 8.29951 30.6553 8.24084 30.5899 8.23264C30.1965 8.18272 29.6685 8.19711 29.3397 8.21351C29.3066 8.12496 29.2647 7.96189 29.3503 7.83434C29.4415 7.69878 29.7091 7.55211 30.4611 7.62317C30.5504 7.63155 30.6362 7.63702 30.7231 7.64358C30.7243 7.64376 30.725 7.64503 30.7263 7.64521C30.728 7.64521 30.7289 7.64394 30.7306 7.64394C31.8152 7.72393 32.7131 7.65961 33.2648 7.6188C33.479 7.60276 33.6799 7.588 33.7229 7.59711C33.8856 7.65706 35.8224 8.91609 36.3715 10.8544C36.3861 10.9059 36.4336 10.9396 36.486 10.9396C36.4962 10.9396 36.5071 10.9382 36.5175 10.9353C36.5809 10.918 36.6178 10.8536 36.6004 10.7915C36.0131 8.72058 33.9603 7.42748 33.7968 7.37519C33.724 7.35259 33.5986 7.36025 33.247 7.3863C32.7227 7.42511 31.8844 7.4867 30.871 7.42092C30.9943 6.28342 30.8599 6.18084 30.8143 6.14713C30.7737 6.11707 30.7139 6.0994 30.6233 6.07206C30.276 5.96803 29.6298 5.77434 29.7426 4.87207C29.7676 4.67201 29.8638 4.52825 30.036 4.43223C30.6941 4.06654 32.1829 4.52023 32.3223 4.5809C32.5107 4.66344 33.5852 4.75455 34.5075 4.46903C34.6165 4.43623 34.7879 4.49454 34.9959 4.6332C36.0529 5.33687 37.8726 7.99286 38.2302 9.85954C37.7788 9.11979 37.2378 8.40009 36.7447 8.32502C36.7447 8.32502 38.9541 11.6215 38.9798 11.8671C39.0054 12.1125 38.857 12.0888 38.857 12.0888C38.857 12.0888 36.8489 9.96267 36.7447 9.97761C36.6422 9.99182 37.8049 11.341 38.7028 12.5279C38.7258 12.5587 38.7621 12.5746 38.8006 12.5696C38.9065 12.5554 39.0006 12.6505 39.1561 12.8001C38.9643 13.0618 38.6859 13.3662 38.5464 13.5126C38.2082 14.0823 38.5367 14.5708 38.7979 14.7876C38.7636 15.0802 38.7684 15.3131 38.7951 15.4991C38.7374 15.5982 38.5946 15.7877 38.4178 15.8038C38.2834 15.8187 38.1253 15.7201 37.9662 15.5153C37.5811 15.0205 36.9302 14.595 36.4729 14.3347C36.4632 14.3252 36.4567 14.3192 36.454 14.3166L36.4493 14.321C36.3133 14.2441 36.1954 14.1822 36.1087 14.1382C36.1788 14.0665 36.2284 14.0071 36.2408 13.9912C37.0396 13.1766 37.4665 13.121 37.6481 13.1591C37.8457 13.2006 37.9122 13.3744 37.9161 13.3846C37.9376 13.4453 38.0049 13.4778 38.0664 13.457C38.1283 13.4362 38.1613 13.3701 38.1405 13.3092C38.1363 13.2965 38.0319 13.0046 37.7034 12.9322C37.2897 12.8404 36.7421 13.1438 36.0618 13.8385C35.9286 14.0061 35.5859 14.3343 35.3861 14.278ZM38.3468 3.82731C38.3546 3.82822 39.1162 3.9175 39.6264 4.52442L39.6475 4.54975L39.6789 4.56032C39.7069 4.56979 40.3644 4.79335 40.8377 4.82232C41.0065 4.83289 41.2446 5.16232 41.4548 5.45312C41.7379 5.84467 42.0055 6.21509 42.3191 6.21509C42.4501 6.21509 42.5589 6.19013 42.6545 6.16827C42.7946 6.13638 42.9058 6.11397 43.043 6.19687C43.0229 6.25627 43.0074 6.29672 43.0039 6.30857C42.9714 6.40495 42.6996 6.9707 41.4785 8.75429C40.4433 10.2664 40.1038 11.4006 40.0239 11.7118C40.0126 11.7113 40.0013 11.7095 39.9935 11.7005C39.8384 11.5129 40.1954 9.14603 40.1062 9.15951C40.0169 9.173 39.8384 8.88074 39.6898 10.9426C39.541 13.0046 39.5113 8.47115 39.0947 8.0324C38.6785 7.59365 39.2358 10.1237 39.2171 10.5772C39.1987 11.0304 39.3547 11.4837 39.2171 11.5422C39.1574 11.5679 38.879 10.9876 38.4973 10.3125C38.5127 10.291 38.5245 10.2659 38.5221 10.2376C38.4398 9.1566 37.7464 7.70352 36.9471 6.50043C36.9313 6.35266 36.7091 4.03156 38.3468 3.82731ZM50.5198 11.78C50.513 11.6625 50.5052 11.5391 50.5009 11.4081C50.4791 10.7396 50.263 10.2125 49.9087 9.96194C49.6709 9.79358 49.3722 9.75569 49.0478 9.85116C48.3677 10.0518 47.9656 10.0164 47.8481 9.99875C47.3861 9.40622 46.907 8.96292 46.6734 8.75939C47.0729 8.56717 47.2805 8.3354 47.2781 8.06756C47.273 7.43131 46.0859 6.90219 45.9502 6.8437L45.9056 6.83404C44.7675 6.80963 43.8986 6.63617 43.6938 6.59189C43.6013 6.45014 43.5189 6.34264 43.4407 6.25099C43.4494 6.22931 43.4581 6.20926 43.4666 6.18722C43.6162 5.80805 43.6675 5.36293 43.6597 4.90505C43.6591 4.87225 43.6725 4.84182 43.6986 4.82123C43.8261 4.72175 44.153 4.48634 44.1992 4.46193C44.2548 4.43241 44.3144 4.33602 44.2464 4.27754C44.1782 4.21868 44.0887 4.32363 44.0585 4.39888C44.0302 4.47067 43.686 4.71574 43.653 4.73906C43.6428 4.51513 43.6199 4.29047 43.5878 4.06928C43.583 4.03575 43.5922 4.00423 43.6169 3.98091C43.7231 3.87978 44.0214 3.60046 44.1462 3.54034C44.2994 3.46654 44.3039 3.41844 44.2511 3.29418C44.1981 3.16973 44.1167 3.339 44.0876 3.40933C44.0591 3.47839 43.5867 3.89746 43.5635 3.91805C43.5428 3.79087 43.5194 3.66642 43.4942 3.54398C43.5237 3.51738 44.0137 3.0759 44.2032 2.99901C44.3986 2.91975 44.408 2.86053 44.3528 2.70256C44.2974 2.54496 44.183 2.74739 44.1413 2.83247C44.1009 2.91392 43.5153 3.37362 43.467 3.41115C43.4355 3.26812 43.4016 3.13184 43.3673 3.00083C43.3589 2.96858 43.3647 2.93742 43.3852 2.91119C43.4987 2.7698 43.8734 2.30791 44.0207 2.20879C44.1953 2.09181 44.1921 2.03187 44.105 1.88866C44.0179 1.74544 43.9482 1.96682 43.9253 2.05865C43.9028 2.14739 43.3578 2.80733 43.3258 2.84614C43.2605 2.61073 43.1966 2.40448 43.1408 2.23739C43.131 2.20842 43.1341 2.17982 43.1501 2.15322C43.2418 1.99853 43.573 1.45119 43.7303 1.30816C43.9143 1.14144 43.9002 1.07202 43.7729 0.918967C43.6454 0.765915 43.6032 1.03721 43.5921 1.14836C43.5815 1.25641 43.1063 2.01438 43.0793 2.05756C43.0205 1.89066 42.9816 1.79409 42.9816 1.79409C42.9816 1.79409 43.0494 0.668798 43.1566 0.530323C43.2635 0.391666 43.4381 0.241895 43.1 0.153526C42.7618 0.0646107 43.0098 0.508095 43.0098 0.508095L42.7674 1.28957C42.7674 1.28957 42.4407 0.524677 42.4796 0.341744C42.5193 0.158811 42.5589 -0.0461708 42.2487 0.00921926C41.9388 0.0646093 42.3106 0.413896 42.3106 0.413896C42.4855 0.729838 42.4574 1.41128 42.4574 1.41128C42.4574 1.41128 41.8823 0.796342 41.8879 0.729837C41.8936 0.66315 41.7415 0.108885 41.4653 0.391666C41.1888 0.674264 41.747 0.840618 41.747 0.840618C41.8767 1.24529 42.73 1.89959 42.73 1.89959C42.7804 2.02312 42.823 2.14301 42.8649 2.26272C42.4145 2.11058 41.8934 1.7828 41.8856 1.74927C41.878 1.7152 41.8282 1.40618 41.6175 1.59822C41.4062 1.79063 41.8206 1.84329 41.8206 1.84329C41.9557 2.04991 42.8602 2.34854 42.9017 2.3622C42.9525 2.5127 42.997 2.66029 43.0359 2.80423C42.3832 2.58486 41.5725 2.05683 41.5612 2.00782C41.5504 1.95881 41.4779 1.51186 41.1733 1.7899C40.8682 2.06776 41.467 2.14411 41.467 2.14411C41.661 2.44074 42.9909 2.90281 43.0665 2.92904C43.1045 3.07809 43.1362 3.22312 43.1629 3.36433C43.0402 3.29655 42.4334 3.01869 42.4334 3.01869C42.2798 2.66284 42.055 2.90062 42.055 2.90062C41.9249 3.21018 42.3625 3.11252 42.3625 3.11252C42.4581 3.17739 42.9544 3.37781 43.1256 3.44614C43.161 3.46035 43.1855 3.49205 43.1914 3.52941C43.2209 3.70633 43.244 3.87814 43.2583 4.04049C43.1325 4.00897 42.3973 3.62689 42.3973 3.62689C42.2574 3.30274 42.0526 3.51957 42.0526 3.51957C41.9342 3.80144 42.3367 3.71125 42.3367 3.71125C42.4416 3.7823 43.2492 4.14708 43.2652 4.15418C43.2746 4.29503 43.2794 4.42931 43.28 4.55831C42.8756 4.46994 42.6655 4.26351 42.6119 4.15801C42.5574 4.05142 42.5374 3.86484 42.3339 4.01516C42.1306 4.1653 42.5441 4.25804 42.5441 4.25804C42.644 4.44443 43.0357 4.59894 43.206 4.65852C43.2514 4.67438 43.2802 4.71847 43.2787 4.76566C43.2629 5.29442 43.1814 5.70055 43.111 5.96584C42.9397 5.88038 42.7835 5.89915 42.6008 5.94106C42.5137 5.9611 42.4233 5.98169 42.3191 5.98169C42.1282 5.98169 41.8617 5.61346 41.6484 5.31774C41.3838 4.95206 41.1344 4.60678 40.8523 4.58947C40.4665 4.56578 39.9213 4.39396 39.7875 4.35023C39.2152 3.6912 38.4063 3.59901 38.3449 3.59573C36.8667 3.7772 36.6913 5.36693 36.6934 6.13256C36.1445 5.36256 35.5718 4.73487 35.1289 4.43988C34.8513 4.25512 34.6189 4.19062 34.4366 4.24656C33.5435 4.52296 32.5322 4.41747 32.4188 4.36773C32.4034 4.36117 30.7326 3.77684 29.9194 4.22925C29.6802 4.36226 29.5412 4.56906 29.5071 4.84346C29.3698 5.94033 30.1998 6.18922 30.554 6.29545C30.6005 6.30911 30.6596 6.3277 30.6568 6.31804C30.7065 6.40987 30.6842 6.93006 30.634 7.40252C30.5836 7.39833 30.5347 7.3956 30.4833 7.39068C29.7827 7.32435 29.3368 7.43076 29.152 7.70589C29.031 7.88645 29.0551 8.08979 29.0951 8.2279C29.0627 8.23009 29.0412 8.23173 29.0362 8.23209L29.001 8.24029C28.0996 8.60142 27.9643 9.1781 27.9458 9.39182C27.6057 9.5385 27.327 9.77682 27.2497 10.0148C27.178 10.2371 27.2781 10.4286 27.5247 10.5399C28.1615 10.8278 28.7445 11.0976 28.8548 11.1488C28.9548 11.282 29.0831 11.3806 29.2445 11.4376C29.3607 11.479 29.4897 11.4977 29.6259 11.4977C30.1774 11.4977 30.8545 11.1947 31.3972 10.8895C31.6136 10.8682 33.3543 10.7339 34.4321 11.8436C34.2411 12.2468 34.1186 12.6688 34.2692 12.9193C34.3415 13.0396 34.4536 13.1177 34.5933 13.1458C34.635 13.1542 34.6779 13.158 34.722 13.158C34.8226 13.158 34.9282 13.1367 35.032 13.1057C34.8131 13.4411 34.8778 13.6802 34.8802 13.6844C34.9347 14.1676 35.0791 14.4351 35.3217 14.5025C35.3589 14.5129 35.3963 14.5178 35.4341 14.5178C35.6059 14.5174 35.7786 14.4185 35.921 14.3066C36.0014 14.3465 36.1487 14.4216 36.33 14.5243C36.5166 14.7082 37.3303 15.5439 37.5607 16.3693C37.8166 17.2849 38.0899 18.0604 38.1854 18.2103C38.188 18.2143 38.3518 18.4457 38.5544 18.6534C38.5855 18.8398 38.6996 19.4269 38.9558 19.8434L38.9969 19.9108L39.6772 19.8041L39.6114 19.6639C39.6096 19.6605 39.4652 19.3449 39.4494 18.957C39.7245 18.8868 40.0693 18.6514 40.3923 17.9197C40.6325 17.3758 40.7589 17.1745 40.8173 17.0994C41.1175 17.3622 41.3595 17.5675 41.5897 17.5808C41.5984 17.5812 41.6064 17.5814 41.6145 17.5814C41.9103 17.5814 42.0932 17.2694 42.2707 16.9675C42.4379 16.6824 42.6108 16.3876 42.8434 16.3876C43.0665 16.3876 43.2657 16.4513 43.4575 16.5129C43.7453 16.6049 44.0174 16.6918 44.2687 16.5064C44.5598 16.2917 44.5817 15.6755 44.5348 14.9082C44.7548 14.5353 45.764 14.5686 46.1925 14.6194C46.834 15.2805 47.5319 15.4093 47.8915 15.4093C47.9899 15.4093 48.0632 15.3995 48.1027 15.3885C48.2625 15.3437 48.5833 15.0183 49.1837 14.3988C49.4187 14.1563 49.6709 13.8961 49.9168 13.6539C50.5936 12.9889 50.5612 12.4552 50.5198 11.78Z" fill="white"/>
<path d="M38.8978 5.87019C38.9459 5.74192 39.0119 5.62112 39.0803 5.50469L39.183 5.33069C39.2165 5.27183 39.2652 5.22774 39.2425 5.12789L39.2412 5.12206C39.236 5.1002 39.2154 5.08489 39.1922 5.08708C39.0814 5.09674 39.0531 5.16998 39.0123 5.22993C38.9732 5.29169 38.9402 5.35711 38.9131 5.42434C38.8583 5.55881 38.8173 5.69746 38.7856 5.83685C38.72 6.11508 38.7017 6.40041 38.7241 6.67863C38.7408 6.39968 38.7982 6.12564 38.8978 5.87019Z" fill="white"/>
<path d="M39.5392 8.22345C39.4931 8.05382 39.4907 7.87799 39.4924 7.70399C39.4959 7.5298 39.5087 7.3558 39.5255 7.18197L39.5808 6.66087L39.5908 6.52895C39.5972 6.48195 39.5972 6.43421 39.6126 6.41617C39.628 6.39248 39.6482 6.38046 39.674 6.36442C39.701 6.34821 39.7331 6.34803 39.7618 6.28808L39.7677 6.27587C39.7757 6.25911 39.772 6.23907 39.7574 6.22668C39.6975 6.17621 39.6428 6.20226 39.593 6.23032C39.5418 6.25783 39.499 6.31486 39.4853 6.37408C39.4722 6.44022 39.4844 6.48231 39.4811 6.52185L39.4707 6.65176C39.4544 6.82595 39.452 7.00196 39.4464 7.1776C39.4429 7.35325 39.4431 7.52907 39.4531 7.7049C39.4642 7.87963 39.4803 8.05747 39.5392 8.22345Z" fill="white"/>
<path d="M34.2807 6.46714C34.0513 6.28184 33.8083 6.11184 33.5533 5.95843C33.2926 5.80939 33.0372 5.66599 32.7118 5.60641C32.7107 5.60623 32.7094 5.60586 32.7083 5.60568C32.6651 5.59985 32.6252 5.62919 32.6191 5.67164C32.6128 5.71409 32.643 5.75345 32.6862 5.75946L32.701 5.76147C32.961 5.79791 33.2414 5.92709 33.4931 6.06137C33.7479 6.20076 33.9947 6.35818 34.2295 6.53201C34.7034 6.8751 35.1398 7.26829 35.5596 7.67661C35.5612 7.67807 35.564 7.67825 35.5659 7.67661C35.5672 7.67497 35.5675 7.67242 35.5661 7.67042C35.1637 7.24515 34.7434 6.83301 34.2807 6.46714Z" fill="white"/>
<path d="M34.7165 6.04367C34.8898 6.14607 35.0714 6.25339 35.2069 6.40844C35.2074 6.40935 35.2091 6.41008 35.2102 6.40935C35.2117 6.40899 35.2124 6.40735 35.2117 6.40571C35.1268 6.21166 34.9828 6.05059 34.839 5.89116C34.8325 5.88406 34.8246 5.87713 34.8159 5.87203C34.7681 5.84397 34.7065 5.8591 34.678 5.90574C34.6494 5.95257 34.6648 6.01324 34.7125 6.0413L34.7165 6.04367Z" fill="white"/>
<path d="M32.0974 8.71757C31.8591 8.73378 31.62 8.75656 31.3851 8.8083C31.1493 8.85458 30.9171 8.92674 30.697 9.03041C30.4775 9.13827 30.2679 9.26181 30.1052 9.47881C30.1047 9.47973 30.1038 9.48082 30.1034 9.48191C30.0791 9.51762 30.0889 9.56573 30.1253 9.58941C30.1618 9.61346 30.2107 9.60362 30.2348 9.56791L30.242 9.55734C30.355 9.39063 30.5552 9.24632 30.7548 9.14192C30.9584 9.03515 31.1793 8.95534 31.4071 8.90032C31.6339 8.84037 31.868 8.80776 32.1022 8.7817C32.3376 8.76057 32.5742 8.75328 32.8114 8.75273C32.8205 8.75273 32.8285 8.74562 32.8291 8.73633C32.8294 8.72704 32.8222 8.71921 32.8124 8.71884C32.5746 8.70937 32.3361 8.70627 32.0974 8.71757Z" fill="white"/>
<path d="M31.466 9.60093C31.3892 9.631 31.3155 9.66343 31.2406 9.70096C31.2343 9.70406 31.2282 9.70825 31.2226 9.71317C31.1902 9.74251 31.1882 9.79225 31.218 9.82413C31.2477 9.85602 31.2984 9.85802 31.3307 9.82869C31.3874 9.77749 31.4487 9.72738 31.511 9.68056C31.5734 9.63646 31.6389 9.5869 31.7093 9.57014L31.7124 9.56941C31.718 9.56795 31.7223 9.56285 31.7224 9.55666C31.7226 9.54937 31.7169 9.54317 31.7093 9.54299C31.62 9.54044 31.5432 9.57397 31.466 9.60093Z" fill="white"/>
<path d="M41.4698 16.3177L41.4676 16.3167C41.0836 16.169 40.7013 15.9959 40.3923 15.7293C40.24 15.5956 40.1116 15.4331 40.0456 15.2439C39.9774 15.0574 39.995 14.8382 40.0929 14.6627L40.094 14.6611C40.0973 14.655 40.0953 14.6474 40.0893 14.6436C40.083 14.6396 40.0747 14.6416 40.0704 14.6478C39.957 14.8274 39.9264 15.0563 39.9882 15.2609C40.048 15.4669 40.1763 15.647 40.3284 15.7955C40.6381 16.0915 41.0222 16.2891 41.4083 16.4611C41.4096 16.4614 41.4112 16.462 41.412 16.4627C41.4527 16.478 41.4989 16.4583 41.5146 16.4184C41.5304 16.3785 41.5106 16.3331 41.4698 16.3177Z" fill="white"/>
<path d="M46.5856 12.9545C46.2494 12.7306 45.8936 12.5369 45.5218 12.3808C45.8639 12.5916 46.1927 12.8186 46.5109 13.0562C46.8369 13.2883 47.1028 13.5744 47.4306 13.8087C47.4401 13.8154 47.454 13.8169 47.4649 13.8105C47.4795 13.8021 47.4847 13.7835 47.4762 13.7692C47.2649 13.4135 46.9121 13.1863 46.5856 12.9545Z" fill="white"/>
<path d="M48.4541 11.4688C48.0679 11.3542 47.6656 11.3004 47.2672 11.3117C47.6613 11.3647 48.0455 11.4611 48.4128 11.5903C48.5974 11.6534 48.7733 11.7366 48.9426 11.8277C49.1166 11.913 49.2725 12.0203 49.4521 12.1098C49.4617 12.1143 49.4752 12.1147 49.4843 12.1076C49.4967 12.0981 49.499 12.0804 49.489 12.0681C49.2327 11.7457 48.8333 11.5874 48.4541 11.4688Z" fill="white"/>
<path d="M44.6727 8.4393C44.9304 8.2274 45.2609 8.0953 45.5931 8.05266C45.7609 8.03517 45.9286 8.02679 46.0946 8.04629C46.2642 8.04246 46.416 8.11625 46.6016 8.06123C46.6059 8.05995 46.6115 8.05704 46.6146 8.05321C46.6233 8.04301 46.6222 8.0277 46.6118 8.01896C46.4612 7.89506 46.2738 7.91146 46.1 7.90052C45.9228 7.89979 45.7471 7.92858 45.5768 7.96666C45.2379 8.05175 44.9127 8.18604 44.6425 8.4076C44.6332 8.41525 44.6321 8.42892 44.6399 8.43803C44.6475 8.44732 44.6615 8.44841 44.6708 8.44076L44.6727 8.4393Z" fill="white"/>
<path d="M38.6143 17.7087C38.5561 17.5637 38.5085 17.4147 38.4657 17.2643C38.4238 17.1135 38.3875 16.9612 38.3545 16.8083L38.2646 16.3424C38.2642 16.3409 38.264 16.3393 38.2635 16.3378C38.2527 16.2963 38.2097 16.271 38.1675 16.2815C38.1251 16.2919 38.0993 16.3342 38.11 16.3759L38.1123 16.3838C38.149 16.5273 38.1907 16.6877 38.2351 16.8376C38.2802 16.9896 38.3284 17.1408 38.3821 17.29C38.4368 17.4393 38.4963 17.5867 38.5663 17.7299C38.6395 17.8705 38.7197 18.0138 38.8463 18.1172C38.8502 18.1196 38.8558 18.1194 38.8585 18.116C38.8613 18.1123 38.8608 18.107 38.8574 18.1041C38.7435 17.9963 38.6753 17.8512 38.6143 17.7087Z" fill="white"/>
<path d="M76.3383 27.929C75.8807 27.929 75.509 28.294 75.509 28.7442C75.509 29.1944 75.8807 29.5594 76.3383 29.5594C76.7962 29.5594 77.168 29.1944 77.168 28.7442C77.1672 28.294 76.7958 27.9294 76.3383 27.929ZM76.3383 29.7221C75.7896 29.7221 75.3437 29.2841 75.3437 28.7442C75.3437 28.2038 75.7896 27.7663 76.3387 27.7663C76.888 27.7663 77.3333 28.2043 77.3333 28.7442C77.3323 29.2841 76.8876 29.7212 76.3383 29.7221Z" fill="white"/>
<path d="M76.5539 28.7277C76.5896 28.6928 76.6072 28.6434 76.6026 28.594C76.6085 28.5464 76.5896 28.4985 76.5522 28.4677C76.4966 28.4402 76.4341 28.4282 76.3717 28.4338H76.1675V28.7696H76.3678C76.4328 28.776 76.4979 28.7613 76.5529 28.7277H76.5539ZM76.7679 28.5949C76.7825 28.729 76.6947 28.8535 76.562 28.8874L76.812 29.2288H76.6069L76.3791 28.9129H76.168V29.2288H76.0064V28.2903H76.3619C76.4712 28.281 76.5807 28.3063 76.6739 28.3626C76.7414 28.4207 76.7761 28.5071 76.7679 28.5949Z" fill="white"/>
</svg>
